<?xml version="1.0" standalone="no"?>
<!DOCTYPE svg PUBLIC "-//W3C//DTD SVG 20010904//EN"
 "http://www.w3.org/TR/2001/REC-SVG-20010904/DTD/svg10.dtd">
<svg version="1.0" xmlns="http://www.w3.org/2000/svg"
 width="512.000000pt" height="512.000000pt" viewBox="0 0 512.000000 512.000000"
 preserveAspectRatio="xMidYMid meet">
<metadata>
Created by potrace 1.14, written by Peter Selinger 2001-2017
</metadata>
<g transform="translate(0.000000,512.000000) scale(0.100000,-0.100000)"
fill="#000000" stroke="none">
<path d="M2340 5019 c-207 -18 -451 -81 -648 -167 -357 -156 -688 -452 -908
-813 -554 -907 -526 -2219 64 -3079 326 -476 777 -765 1342 -862 167 -29 455
-35 636 -14 740 86 1332 532 1654 1246 345 763 337 1732 -19 2475 -127 264
-254 448 -441 635 -433 435 -1019 637 -1680 579z m545 -603 c120 -32 313 -125
406 -195 248 -189 396 -451 431 -764 17 -153 17 -1628 0 -1772 -32 -272 -117
-448 -312 -646 -234 -237 -447 -335 -753 -346 -172 -7 -289 8 -424 52 -175 58
-305 137 -431 264 -81 80 -189 222 -232 303 -85 160 -92 268 -88 1403 l3 920
63 127 c80 163 146 261 241 357 157 161 357 269 571 310 30 6 64 13 75 15 11
3 94 3 185 2 140 -3 180 -8 265 -30z"/>
<path d="M2386 4044 c-32 -8 -86 -29 -120 -47 -106 -56 -281 -241 -325 -342
-34 -79 -42 -171 -50 -570 -8 -406 -5 -1207 5 -1302 3 -33 10 -53 18 -53 11 0
524 1022 940 1873 l165 338 -42 26 c-111 70 -209 93 -397 92 -80 0 -159 -6
-194 -15z"/>
<path d="M3225 3403 c-51 -85 -615 -1217 -817 -1638 -207 -431 -252 -536 -241
-554 14 -24 169 -99 243 -118 88 -22 282 -22 370 0 146 38 292 136 385 258 26
35 72 114 102 174 l53 110 1 885 c0 487 -3 901 -8 920 -15 59 -37 50 -88 -37z"/>
</g>
</svg>
